# xmcd
# 
# Track frame offsets:
#     150
#     20097
#     36715
#     62580
#     76415
#     95647
#     118720
#     142287
#     160795
#     184177
#     206045
# 
# Disc length: 3146
# 
# Revision: 0
# Processed by: cddbd v1.5.2PL0 Copyright (c) Steve Scherf et al.
# Submitted via: fre:ac v1.0.31
# 
DISCID=a50c480b
DTITLE=The Moody Blues - 20th Century Masters - The Millennium Collection
DYEAR=2000
DGENRE=Rock/Pop
TTITLE0=Nights In White Satin
TTITLE1=Ride My See-Saw
TTITLE2=Question
TTITLE3=The Story In Your Eyes
TTITLE4=I'm Just A Singer (In A Rock And Roll Band)
TTITLE5=Steppin' In A Slide Zone
TTITLE6=The Voice
TTITLE7=Gemini Dream
TTITLE8=Blue World
TTITLE9=Your Wildest Dreams
TTITLE10=I Know You're Out There Somewhere
EXTD=YEAR: 2000 ID3G: 17
EXTT0=
EXTT1=
EXTT2=
EXTT3=
EXTT4=
EXTT5=
EXTT6=
EXTT7=
EXTT8=
EXTT9=
EXTT10=
PLAYORDER=
